<svg xmlns="http://www.w3.org/2000/svg" viewBox="0 0 512 512" id="dumbbell"><path fill="#1c2b35" d="M464 232h-40v-24a24 24 0 0 0-24-24h-8v-8a24 24 0 0 0-48 0v56H168v-56a24 24 0 0 0-48 0v8h-8a24 24 0 0 0-24 24v24H48a24 24 0 0 0 0 48h40v24a24 24 0 0 0 24 24h8v8a24 24 0 0 0 48 0v-56h176v56a24 24 0 0 0 48 0v-8h8a24 24 0 0 0 24-24v-24h40a24 24 0 0 0 0-48ZM88 264H48a8 8 0 0 1 0-16h40Zm32 48h-8a8 8 0 0 1-8-8v-96a8 8 0 0 1 8-8h8Zm32 24a8 8 0 0 1-16 0V176a8 8 0 0 1 16 0Zm192-72H168v-16h176Zm32 72a8 8 0 0 1-16 0V176a8 8 0 0 1 16 0Zm32-32a8 8 0 0 1-8 8h-8V200h8a8 8 0 0 1 8 8Zm56-40h-40v-16h40a8 8 0 0 1 0 16Z"></path><path fill="#dfe6e9" d="M472 256a8 8 0 0 1-8 8h-40v-16h40a8 8 0 0 1 8 8Z"></path><path fill="#636e73" d="M408 208v96a8 8 0 0 1-8 8h-8V200h8a8 8 0 0 1 8 8zm-32-32v160a8 8 0 0 1-16 0V176a8 8 0 0 1 16 0z"></path><path fill="#dfe6e9" d="M168 248h176v16H168z"></path><path fill="#636e73" d="M152 176v160a8 8 0 0 1-16 0V176a8 8 0 0 1 16 0zm-32 24v112h-8a8 8 0 0 1-8-8v-96a8 8 0 0 1 8-8z"></path><path fill="#dfe6e9" d="M88 248v16H48a8 8 0 0 1 0-16Z"></path></svg>