<svg xmlns="http://www.w3.org/2000/svg" enable-background="new 0 0 50 50" viewBox="0 0 50 50" id="picture-gallery"><path fill="#D7D7D7" d="M36.61641,42.68512c-0.37307,0.2871-1.25803-0.01188-1.69594-0.01917
			c-0.6493-0.01082-1.29734,0.06062-1.94673,0.05709C5.93507,42.57598,7.51528,42.37657,5.23334,42.84277
			c-1.09048,0.22279-2.85153,0.89075-3.5503-0.35608c-0.45463-0.81119-0.14317-1.79683-0.06067-2.65027
			c0.1986-2.05455,0.91852-21.78337,0.94655-21.88461c0.25835-0.9332-1.95668-0.70742,30.84228-0.52904
			c1.20912,0.00667,2.41695,0.26074,3.62713,0.13742c1.42228-0.14493,1.03976-1.17915,0.42737,11.79745
			c-0.14498,3.07216-0.28948,6.14435-0.43451,9.21651C36.9916,39.41254,37.31983,42.14378,36.61641,42.68512z"></path><path fill="#CEEFFA" d="M3.8917,40.72611c0.12469-0.83005,0.9971-17.80906,0.89257-21.14408
			c2.10828,0.19723,24.51724-0.01253,30.77277,0.35396c-0.00925,0.10173-0.91186,17.1485-0.85232,20.36464
			C9.94598,40.45061,8.37463,39.78666,4.75948,40.52416c-0.18455,0.03814-0.38576,0.0859-0.5952,0.13674
			C4.0812,40.68127,3.98762,40.70345,3.8917,40.72611z"></path><path fill="#494949" d="M29.31873,40.21824l-6.67999-0.35999c0.08002,0.12,0.16998,0.23999,0.25,0.35999l-10.51001-0.39001
			c1.44-3.04999,2.72998-6.16998,3.87-9.33996c0.21002-0.59003,1.02002-0.60004,1.26001-0.02002
			c0.75,1.79004,1.59998,3.54004,2.53998,5.22998c0.95001-3.12,1.83002-6.28998,2.63-9.5
			c0.21002-0.84998,1.02002-0.87,1.26001-0.03998c0.70001,2.41998,1.48999,4.78998,2.35999,7.08002
			c0.36005-0.91003,0.70001-1.83002,1.03003-2.75c0.20996-0.59003,1.01996-0.60004,1.26001-0.02002
			c1.42999,3.42999,3.23999,6.71002,5.38001,9.75l-4.73004-0.17999C29.25873,40.09825,29.2887,40.15825,29.31873,40.21824z"></path><path fill="#EA8303" d="M10.41351,23.51389c-1.43898-1.43355-3.1751,0.61716-2.24156,2.17309
			c0.65098,1.08495,2.29084,0.9055,2.69264-0.29335C11.07149,24.77631,10.86934,23.96801,10.41351,23.51389z"></path><path fill="#D7D7D7" d="M47.03576,32.26577c-0.37307,0.2871-1.25803-0.01188-1.69594-0.01917
			c-1.3285-0.02213,3.37881,0.08606-15.38527-0.016c-10.16383-0.05528-11.72476-0.33368-14.30185,0.19283
			c-1.09048,0.22279-2.85153,0.89075-3.5503-0.35608c-0.45463-0.81119-0.14317-1.79683-0.06067-2.65027
			c0.10349-1.07065-0.00349,0.07442,0.51544-10.92174c0.62766-13.30018-0.73194-11.66597,3.5702-11.64258
			C51.54397,7.04539,48.3407,6.94815,48.41693,7.66731c0.05284,0.49847,0.10958-2.30535-0.96642,20.48752
			C47.41094,28.9932,47.73918,31.72444,47.03576,32.26577z"></path><path fill="#CEEFFA" d="M14.31104,30.30676c0.15372-1.02331,0.98382-18.23283,0.89257-21.14407
			c1.61234,0.15083,25.45301,0.04229,30.77277,0.35396c-0.00925,0.10173-0.91186,17.1485-0.85232,20.36464
			C18.48167,30.04268,18.7991,29.24669,14.31104,30.30676z"></path><path fill="#494949" d="M39.73872,29.79826l-6.67999-0.35999c0.08002,0.12,0.16998,0.23999,0.25,0.35999l-10.51001-0.39001
			c1.44-3.04999,2.73004-6.16998,3.87-9.33997c0.21002-0.59003,1.02002-0.60004,1.26001-0.02002
			c0.75,1.78998,1.60004,3.53998,2.54004,5.22998c0.94995-3.12,1.82996-6.28998,2.62995-9.5
			c0.21002-0.84998,1.02002-0.87,1.26001-0.03998c0.69,2.41998,1.48004,4.78998,2.36005,7.08002
			c0.35999-0.91003,0.69995-1.83002,1.02997-2.75c0.21002-0.59003,1.02002-0.60004,1.26001-0.02002
			c1.42999,3.42999,3.23999,6.71002,5.38,9.75l-4.72998-0.17999C39.67872,29.67827,39.70875,29.73826,39.73872,29.79826z"></path><path fill="#EA8303" d="M20.83285,13.09455c-1.43898-1.43355-3.1751,0.61716-2.24156,2.17309
				c0.65098,1.08495,2.29084,0.9055,2.69264-0.29335C21.49083,14.35697,21.28869,13.54866,20.83285,13.09455z"></path><path d="M7.93873,23.69823c-0.38,0.66003-0.37,1.47003,0.02002,2.12006c0.31,0.51996,0.87,0.83997,1.48999,0.83997
					c0.76001,0,1.40997-0.46997,1.64996-1.19c0.24005-0.69,0.02002-1.60999-0.50995-2.13
					C9.7287,22.47825,8.49872,22.69823,7.93873,23.69823z M10.62873,25.31828c-0.16998,0.50995-0.64001,0.83997-1.17999,0.83997
					c-0.45001,0-0.83002-0.21997-1.06-0.59998c-0.29999-0.5-0.31-1.10004-0.02002-1.61005
					c0.22998-0.40997,0.62-0.66998,1.01001-0.66998c0.28998,0,0.59003,0.14001,0.85999,0.41003
					C10.62873,24.07823,10.79871,24.79826,10.62873,25.31828z"></path><path d="M14.14875,6.27824c-1.80005,0-1.81,0.97003-1.88,5.06c-0.05079,3.47538-0.12958,5.08473-0.14014,5.44263
					C2.56627,16.72001,2.23037,16.66785,2.08771,17.817c-0.02441,0.08789-0.02441,0.08789-0.20996,4.80371
					C1.05736,43.61369,0.753,41.85107,1.24689,42.73106c0.36816,0.65723,0.99707,0.99072,1.87012,0.99072
					c0.58496,0,1.1875-0.146,1.71875-0.27441c2.02955-0.49047,2.39412-0.42449,10.46875-0.35303
					c9.62947,0.08561,21.29889,0.23219,21.61621-0.0127c0.97188-0.74792,0.56235-3.47034,0.60938-4.48389l0.27533-5.83948
					c9.13962,0.03873,7.20761-0.05209,7.9433,0.03998c0.60999,0.10999,1.23999,0.13,1.59003-0.14001
					c0.98181-0.73994,0.56098-3.54985,0.60999-4.47998c0.98144-20.71341,1.0355-20.3554,0.96997-20.53003
					C49.19698,6.72179,50.34996,6.27824,14.14875,6.27824z M11.66871,32.30827c0.68415,1.22035,2.03279,1.06882,3.30615,0.79266
					c-0.86719,2.23529-1.80005,4.4549-2.8161,6.61731l-0.10706,0.22748c-3.42068-0.04835-5.48048-0.12214-7.87903,0.45575
					c0.19824-2.57666,0.91602-16.97168,0.86719-20.55176c0.99402,0.05066,3.57196,0.06854,6.94879,0.07928
					c-0.45844,9.86805-0.36767,9.02412-0.5199,9.98926C11.35871,30.67827,11.2287,31.52824,11.66871,32.30827z M34.45197,40.05186
					c-0.09906,0.00061-0.19165,0.00098-0.28998,0.00153c-1.63196-2.31256-3.04877-4.77325-4.26972-7.32513
					c0.10069,0.00042,5.10208,0.02132,4.78961,0.02002C34.54749,35.8798,34.44611,38.71788,34.45197,40.05186z M29.33503,32.71824
					c1.18658,2.51514,2.56128,4.94745,4.14368,7.22998l-4.08997-0.14996c-1.02002-2.12-1.96002-4.33002-2.81-6.60004
					c0.06122-0.16534,0.12573-0.32751,0.18988-0.48999C27.05015,32.70986,27.13363,32.71824,29.33503,32.71824z M25.8501,32.69822
					c1.29632,3.44048,2.35608,5.84629,3.05865,7.25c-0.10418-0.00566-9.98471-0.14904-9.86336-0.14246
					c0.45984-1.43549,1.40997-4.56738,2.15658-7.17749C21.93848,32.62828,23.44142,32.66587,25.8501,32.69822z M19.98871,35.03825
					c-0.43549-0.79706-0.83844-1.60388-1.22546-2.42004c0.53851-0.01001,1.16663-0.00995,1.92383,0.00006
					C20.45691,33.42759,20.22425,34.23429,19.98871,35.03825z M18.21723,32.62834c0.49011,1.04584,1.00867,2.08368,1.57147,3.0899
					c-0.67735,2.24081-1.25715,3.97826-1.28998,4.08002l-5.72998-0.21002c1.00854-2.15863,1.92059-4.38416,2.78467-6.62653
					C15.6712,32.94075,16.57681,32.6798,18.21723,32.62834z M36.31621,42.28526c0.10636,0.00061-20.89215-0.18994-21.00194-0.19092
					c-8.498-0.07563-8.55245-0.08968-10.18066,0.25879c-1.02868,0.20695-2.52036,0.77173-3.01367-0.11084
					c-0.35582-0.63292-0.08573-1.49585,0-2.35742c0.1377-1.42822,0.52539-11.31689,0.75781-17.2251
					c0.09863-2.51709,0.17578-4.50488,0.17383-4.57471c0.01463-0.05615,0.02539-0.10938,0.03418-0.17432
					c0.8298-0.20952,6.19032-0.14796,9.00287-0.13007c-0.05073,1.16907-0.01692,0.37078-0.0799,1.64825
					c-3.67749-0.01184-6.5282-0.03271-7.20129-0.09583l-0.28223-0.02637l0.00879,0.2832
					c0.13861,4.41694-0.93956,21.36571-0.94531,21.46582c1.53398-0.22641,0.63615-0.72703,9.54297-0.59424
					c9.12054,0.1354,13.89837,0.12363,21.82813,0.0874c0.00183-0.10233-0.08125-0.71349,0.22345-7.80066
					c0.5683,0.01001,1.10687,0.01001,1.61548,0.01001c0.00226,0.00006,0.00421-0.00006,0.00647,0l-0.27313,5.7926
					C36.50253,39.18256,36.72982,41.96674,36.31621,42.28526z M47.87873,9.17827c-0.10999,2.01996-0.35999,6.91998-0.92999,18.95001
					c-0.02329,0.48848,0.19875,3.42064-0.21002,3.73999c-36.79897-0.62724-33.5711,1.06257-34.20001-0.04999
					c-0.26996-0.48004-0.17999-1.10004-0.07996-1.75c0.13144-0.87726,0.13941-1.36588,0.17999-2.34003
					c0.35406-8.64104,0.49992-9.0488,0.63-16.37c0.07001-4.08002,0.13-4.08002,0.88-4.08002
					c0.10124,0,32.48476,0.21797,33.76996,0.40002v0.03998c0.01001,0.08002,0.02002,0.10999,0.02002,0.10999
					C47.93873,7.92827,47.92872,8.21824,47.87873,9.17827z"></path><path d="M15.2287,8.91826l-0.27997-0.03003l0.01001,0.28003c0.12303,4.00695-0.94219,21.33062-0.95001,21.46997l0.35999-0.08997
					c4.383-1.03265,3.911-0.265,31.01001-0.41998c0.08756-2.1317-0.32235,7.72307,0.87-20.85004l-0.26001-0.01001
					C42.7469,9.08121,15.25524,8.9207,15.2287,8.91826z M30.73871,25.24827c0.94-3.10004,1.81-6.25,2.60004-9.41004
					c0.07001-0.27997,0.21997-0.45996,0.38995-0.45996c0.16003,0,0.31,0.16998,0.39001,0.42999
					c1.51853,5.25972,3.58817,10.47956,5.21002,13.71997c-0.13583-0.00738-9.97238-0.5415-9.76001-0.52997
					c0.33002-1.02002,0.65997-2.05005,0.96997-3.09003C30.60871,25.68828,30.67872,25.46824,30.73871,25.24827z M39.80872,29.37828
					c-1.02002-2.11005-1.96002-4.29004-2.83002-6.55005c2.3291-5.92165,0.43963-2.65333,6.92004,6.70001L39.80872,29.37828z
					 M28.91871,29.37828l-5.72998-0.21002c1.37-2.94,2.62-5.97003,3.71002-9.01001c0.07996-0.21002,0.26001-0.28998,0.39996-0.28998
					c0.17999,0,0.33002,0.09998,0.40002,0.26996c0.72998,1.77002,1.57001,3.5,2.5,5.17004
					C29.53917,27.50674,29.13695,28.69903,28.91871,29.37828z M44.86872,29.62828h-0.28998
					c-5.42119-7.68641-4.73426-10.26001-6.20001-10.26001c-0.86361,0-0.91021,0.76803-1.65997,2.73999
					c-0.78003-2.09003-1.49005-4.25-2.12006-6.44c-0.14996-0.48999-0.47998-0.78998-0.87-0.78998
					c-0.40997,0-0.75,0.32996-0.88,0.83997c-0.73999,2.98999-1.56,5.97003-2.44995,8.91004
					c-0.83002-1.52002-1.58002-3.08002-2.23999-4.68005c-0.15002-0.35999-0.48004-0.57996-0.86005-0.57996
					c-0.38995,0-0.72998,0.23999-0.87,0.62c-1.84437,5.1413-3.57129,8.65372-3.95996,9.52997
					c-4.42004-0.06-5.59003-0.04999-7.88,0.47003c0.20996-2.60999,0.90997-17.19,0.87-20.56
					c3.31255,0.13685,24.77243,0.04114,30.25,0.32001C45.5987,11.84825,44.85871,26.11827,44.86872,29.62828z"></path><path d="M18.35871,13.27824c-0.38,0.66003-0.37,1.47003,0.02002,2.12c0.74964,1.25752,2.66359,1.06944,3.14001-0.33997
					c0.23999-0.70001,0.01996-1.62-0.51001-2.14001C20.14875,12.05827,18.91871,12.27824,18.35871,13.27824z M21.04871,14.89824
					c-0.32307,0.96933-1.67806,1.16848-2.23999,0.23999c-0.29999-0.5-0.31-1.09998-0.02002-1.60999
					c0.40641-0.72428,1.19708-0.93283,1.87006-0.26001C21.04871,13.65825,21.21876,14.37828,21.04871,14.89824z"></path></svg>