<svg xmlns="http://www.w3.org/2000/svg" viewBox="0 0 64 64" id="responsive-devices"><g data-name="Layer 3"><path fill="#ffb09c" d="M63,49v2a2.006,2.006,0,0,1-2,2H51a2.006,2.006,0,0,1-2-2V49Z"></path><rect width="14" height="16" x="49" y="33" fill="#dbe2ee"></rect><path fill="#ffb09c" d="M63,31v2H49V31a2.006,2.006,0,0,1,2-2H61A2.006,2.006,0,0,1,63,31Z"></path><path fill="#dbe2ee" d="M55,22v7H51a2.006,2.006,0,0,0-2,2V45H32V22Z"></path><path fill="#f9fcbd" d="M55,20v2H32V20a2.006,2.006,0,0,1,2-2H53A2.006,2.006,0,0,1,55,20Z"></path><path fill="#dbe2ee" d="M51,14v4H34a2.006,2.006,0,0,0-2,2V36H1V14a3,3,0,0,1,3-3H48A3,3,0,0,1,51,14Z"></path><path fill="#f9fcbd" d="M51,53H34a2.006,2.006,0,0,1-2-2V45H49v6A2.006,2.006,0,0,0,51,53Z"></path><path fill="#a9c0f9" d="M32,51V44H20a5.412,5.412,0,0,1,0,6H16.5a1.5,1.5,0,0,0,0,3H34A2.006,2.006,0,0,1,32,51Z"></path><path fill="#919de3" d="M24.092,46.863A9.586,9.586,0,0,0,23.324,44H20a5.579,5.579,0,0,1,.652,4.831h0a4.787,4.787,0,0,1-.272.691,5.646,5.646,0,0,1-.378.672H34.452V48.738H26.144A2.078,2.078,0,0,1,24.092,46.863Z"></path><path fill="#a9c0f9" d="M32,36v8H4a3,3,0,0,1-3-3V36Z"></path><path fill="#c9cbdb" d="M32,32v4H1V14a3,3,0,0,1,3-3H9V26a6,6,0,0,0,6,6Z"></path><path fill="#919de3" d="M32,42v2H4a3,3,0,0,1-3-3V36H6v4a2,2,0,0,0,2,2Z"></path><path fill="#c9cbdb" d="M49,41v4H32V22h6V38a3,3,0,0,0,3,3Z"></path><path fill="#ebdab0" d="M51,53H34a2.006,2.006,0,0,1-2-2V45h4v4a2,2,0,0,0,2,2H49A2.006,2.006,0,0,0,51,53Z"></path><path fill="#c9cbdb" d="M63,46v3H49V33h4V43a3,3,0,0,0,3,3Z"></path><path fill="#ebdab0" d="M55,20v2H32V20a2.006,2.006,0,0,1,2-2h1v1a1,1,0,0,0,1,1Z"></path><path fill="#eb8e86" d="M63 51a2.006 2.006 0 0 1-2 2H51a2.006 2.006 0 0 1-2-2V49h3a2 2 0 0 0 2 2zM63 31v2H49V31a2.006 2.006 0 0 1 2-2v1a1 1 0 0 0 1 1z"></path></g><g data-name="Layer 1"><path d="M1 33a1 1 0 0 0 1-1V14a2 2 0 0 1 2-2H48a2 2 0 0 1 2 2 1 1 0 0 0 2 0 4 4 0 0 0-4-4H4a4 4 0 0 0-4 4V32A1 1 0 0 0 1 33zM19.419 49H16.5a2.5 2.5 0 0 0 0 5H28.35a1 1 0 0 0 0-2H16.5a.5.5 0 0 1 0-1H28a1 1 0 0 0 0-2H21.579a6.363 6.363 0 0 0 0-4H28a1 1 0 0 0 0-2H4a2 2 0 0 1-2-2V37H28a1 1 0 0 0 0-2H1a1 1 0 0 0-1 1v5a4 4 0 0 0 4 4H19.419A4.379 4.379 0 0 1 19.419 49z"></path><path d="M28 39H24a1 1 0 0 0 0 2h4a1 1 0 0 0 0-2zM53 17H34a3.009 3.009 0 0 0-3 3v2a1 1 0 0 0 1 1H54v2a1 1 0 0 0 2 0V20A3.009 3.009 0 0 0 53 17zm1 4H33V20a1 1 0 0 1 1-1H53a1 1 0 0 1 1 1zM32 25a1 1 0 0 0-1 1V51a3 3 0 0 0 3 3H45.35a1 1 0 0 0 0-2H34a1 1 0 0 1-1-1V46H45a1 1 0 0 0 0-2H33V26A1 1 0 0 0 32 25z"></path><path d="M45 48H42a1 1 0 0 0 0 2h3a1 1 0 0 0 0-2zM61 28H51a3.009 3.009 0 0 0-3 3v2a1 1 0 0 0 1 1H62V48H50V37a1 1 0 0 0-2 0V51a3.009 3.009 0 0 0 3 3H61a3.009 3.009 0 0 0 3-3V31A3.009 3.009 0 0 0 61 28zm1 23a1 1 0 0 1-1 1H51a1 1 0 0 1-1-1V50H62zm0-19H50V31a1 1 0 0 1 1-1H61a1 1 0 0 1 1 1z"></path></g></svg>